<?xml version="1.0" encoding="utf-8"?>
<!-- Generator: Adobe Illustrator 25.0.0, SVG Export Plug-In . SVG Version: 6.00 Build 0)  -->
<svg version="1.1" id="Layer_1" xmlns="http://www.w3.org/2000/svg" xmlns:xlink="http://www.w3.org/1999/xlink" x="0px" y="0px"
	 viewBox="0 0 792.4 763.7" style="enable-background:new 0 0 792.4 763.7;" xml:space="preserve">
<style type="text/css">
	.st0{fill:#FF6584;}
	.st1{fill:#9381FF;}
	.st2{fill:#CCCCCC;}
	.st3{fill:#FFFFFF;}
	.st4{fill:#A0616A;}
	.st5{fill:#2F2E41;}
</style>
<circle class="st0" cx="180.2" cy="49.4" r="49.4"/>
<path class="st1" d="M235.8,364.6c-19.3,0-38-6.9-52.7-19.5c-4.9-4.2-10.1-11.5-15.5-21.7c-7-13.3-7.5-29-1.6-42.8
	c-2.8,2.9-6,5.5-9.4,7.7l-1.7,1.1l-0.1-2.1c-0.1-1.3-0.1-2.7-0.1-4c0-7.6,5.8-15.3,3.1-22.4c-11.2-29.7-46.7-59.2,4.8-105.1
	c4.8-4.2-1.6-12.7-1.6-19.2c0-63,68.4-157.5,114.2-114.2C302,48,357.7,65.9,383.7,101l0.3,1l-1,0.4c-5.2,2.2-10.7,3.6-16.3,4.3
	c6,1.2,12.1,1.7,18.1,1.5l0.9,0l0.2,0.9c2.3,9.1,3.4,18.4,3.4,27.8l0,1c0,14.4,6,28.1,16.7,37.7c16.9,15.4,26.5,37.1,26.5,60
	c0,13.4-9.1,30.9-16.7,43.2c-3.9,6.4-10.5,10.6-17.9,11.5c-7,0.9-14.1-1.4-19.3-6.2c3.6,7.2,8.3,13.9,13.9,19.7l1,1.1l-1.3,0.8
	c-12.4,7.2-26.5,11-40.8,11l-0.8,0c-21.8,0-42.5,8.4-56.7,23.2C278.8,355.6,257.8,364.5,235.8,364.6z"/>
<path class="st2" d="M207.2,491.6c-0.7,0-1.3-0.5-1.4-1.3c-0.1-0.4-6.1-44.2-0.7-102.3c5-53.7,21.2-131,69.6-194.6
	c0.5-0.6,1.4-0.8,2-0.3s0.8,1.4,0.3,2c-48,63-64,139.8-69,193.1c-5.4,57.8,0.6,101.2,0.7,101.7c0.1,0.8-0.4,1.5-1.2,1.6
	C207.4,491.6,207.3,491.6,207.2,491.6z"/>
<path class="st2" d="M251.4,281.4c-0.8,0-1.5-0.7-1.5-1.5c0-0.5,0.2-0.9,0.6-1.2c13.8-9.3,28.7-16.9,44.4-22.6
	c24.5-9,61.7-17.1,100-4.9c0.8,0.2,1.2,1.1,0.9,1.8s-1.1,1.2-1.8,0.9l0,0c-37.5-11.9-74.1-4-98.1,4.8c-15.4,5.6-30.1,13-43.6,22.2
	C252,281.3,251.7,281.4,251.4,281.4z"/>
<path class="st2" d="M183.7,109.3c-0.1-0.8,0.5-1.5,1.3-1.6c0.5,0,0.9,0.2,1.2,0.5c10.3,13.1,18.9,27.4,25.7,42.6
	c10.7,23.8,21.5,60.3,12.1,99.4c-0.2,0.8-1,1.3-1.8,1.1s-1.3-1-1.1-1.8c9.2-38.3-1.4-74.2-11.9-97.5c-6.7-15-15.2-29.1-25.3-41.9
	C183.8,109.9,183.7,109.6,183.7,109.3z"/>
<path class="st1" d="M539.4,580.2c-100.3,0-177.2-5.3-230.6-26.4c-130.1-51.5-174.2-72.9-174.6-73.2l0.9-1.8
	c0.4,0.2,44.5,21.6,174.5,73.1c77.1,30.5,204,27.8,379.6,24.1c33-0.7,67-1.4,103.3-2l0,2c-36.3,0.6-70.4,1.3-103.3,2
	C634.5,579.1,584.5,580.2,539.4,580.2z"/>
<path class="st1" d="M116.2,711.4l-1.4-1.4c48.6-48.6,67.3-67.2,71.3-71.1L42.9,535.5l1.2-1.6l145.1,104.8l-0.8,0.8
	C188.1,639.6,171.6,656,116.2,711.4z"/>
<path class="st1" d="M188.3,763.7l-1.4-1.5c4.5-4.2,109.9-102.3,130.4-102.3h0.1l472.1,4.8l0,2l-472.1-4.8h-0.1
	C297.6,661.9,189.4,762.7,188.3,763.7z"/>
<rect x="658.2" y="610.7" class="st1" width="121.3" height="2"/>
<rect x="431.2" y="610.7" class="st1" width="121.3" height="2"/>
<path class="st1" d="M425.5,449.5h-70v-17.7h26c3.3,0,6-2.7,6-6v-19.2c0-3.3-2.7-6-6-6h-26v-6c0-4.4-3.6-8-8-8s-8,3.6-8,8v6h-96.1
	c-1.2,0-2.5,0.4-3.5,1.1l-13.5,9.6c-2.7,1.9-3.3,5.7-1.4,8.4c0.4,0.6,0.9,1,1.4,1.4l13.5,9.6c1,0.7,2.2,1.1,3.5,1.1h96.1v17.7h-70
	c-3.3,0-6,2.7-6,6v19.2c0,3.3,2.7,6,6,6h70v66c0,4.4,3.6,8,8,8s8-3.6,8-8v-66h70c3.3,0,6-2.7,6-6v-19.2
	C431.5,452.2,428.8,449.5,425.5,449.5L425.5,449.5z"/>
<path class="st1" d="M307.5,417.2h-50c-1.9,0-3.5-1.6-3.5-3.5s1.6-3.5,3.5-3.5l0,0h50c1.9,0,3.5,1.6,3.5,3.5
	S309.4,417.2,307.5,417.2z"/>
<path class="st3" d="M369.5,468.2h-50c-1.9,0-3.5-1.6-3.5-3.5s1.6-3.5,3.5-3.5h50c1.9,0,3.5,1.6,3.5,3.5S371.4,468.2,369.5,468.2z"
	/>
<path class="st1" d="M129.5,549.5v-17.7h26c3.3,0,6-2.7,6-6v-19.2c0-3.3-2.7-6-6-6h-26V495c0.1-4.3-3.2-7.9-7.5-8.3
	c-4.4-0.3-8.2,3-8.5,7.5c0,0.2,0,0.4,0,0.5v6L5.9,551c-0.9,0.4-1.6,1.2-1.9,2.1c-0.8,2.6-2.6,8.1-3.8,12.4c-0.7,2.5,0.8,5.1,3.3,5.7
	c0.5,0.1,0.9,0.2,1.4,0.2c6.9-0.2,11.5-0.5,14.7-0.6c0.6,0,1.2-0.2,1.8-0.4l92.2-38.6v48.8v65.7c-0.1,4.3,3.2,7.9,7.5,8.3
	c4.4,0.3,8.2-3,8.5-7.5c0-0.2,0-0.4,0-0.5L129.5,549.5L129.5,549.5z"/>
<path class="st3" d="M87.7,532.2l-45.6,20.5c-1.8,0.8-3.8,0-4.6-1.8c-0.8-1.8,0-3.8,1.8-4.6l0,0l45.6-20.5c1.8-0.8,3.8,0,4.6,1.8
	C90.3,529.3,89.5,531.4,87.7,532.2z"/>
<path class="st4" d="M699.2,369.2l-20.9,2.1c-0.9,10.7,0.9,21.5,5.4,31.3l-6.3,58.3l0.1,0c-1.9,3.2-0.8,7.4,2.5,9.2
	c3.2,1.9,7.4,0.8,9.2-2.5c1.4-2.4,1.2-5.4-0.6-7.6l13.9-52L699.2,369.2z"/>
<polygon class="st4" points="635.1,625 626.2,623.5 625.3,596.7 640.9,590.8 "/>
<path class="st5" d="M633.8,634.3l-27.2-4.7l0.1-0.3c1-5.9,6.6-9.8,12.4-8.8l0,0l5.6-2.9l8.6,5.4l2.4,0.4L633.8,634.3z"/>
<polygon class="st4" points="723.9,606.5 716.3,611.2 694.5,583.8 705.9,576.9 "/>
<path class="st5" d="M729.1,614.3l-23.6,14.4l-0.2-0.3c-3.1-5.1-1.5-11.7,3.6-14.8l0,0l2.3-5.9l10-1.6l2.1-1.3L729.1,614.3z"/>
<path class="st5" d="M638.1,462.4l-5.3,20.2c0,0-1.5,8.4-0.7,9.1c1.3,1.8,1.9,4,1.8,6.2c-0.3,2-3.8,1.2-2.1,4.3s-3.6,49.4-3.6,49.4
	l-4.8,57.1l17,2c2.4-1.4,2.8-3.1,1.4-4.8c0,0,3.5-4,1.6-5.6s1.6-2.2,1.7-6.2l11-39.2l3.6-8.8l-0.9-4.6l2.8-5.2l1.3-13.8l3.6,36.2
	l33.6,38.6l16.5-8.3l1-2.1c0.8-1.8,0.2-3.9-1.5-5l0,0l-5.6-5.2c0.5-2.2-7.2-7.5-7.2-7.5l-12.8-24.1l7.9-67.4c0,0,12-16-3.9-30.5
	C688.1,441.3,638.1,462.4,638.1,462.4z"/>
<path class="st1" d="M689.2,435.8c2.8-4.2,9.6,1.8,7.3-5.7c-2.3-7.5-8-8.9-2.9-16.1l7.4-35.9l0,0c0.4-8.6-2.5-17-8.1-23.4
	l-10.6-12.1l-1.6-4.3l-18-0.8l-1.5,5.3c-5.4,6.7-14.2,15.3-14,28c0.5,24.4-3.3,56.9-12.7,99.1c0,0,21-16.4,27.5-9.3
	s26.4,5.2,31.4,0.2c3.2-3.4,5.5-7.5,6.8-12C700.3,448.8,686.4,440,689.2,435.8z"/>
<path class="st5" d="M700.6,464.3l-41.1-11.6l-27,13c12.1-22.5,19.4-59.9,17.1-91.8c-0.6-6.8,0.8-13.5,3.8-19.6
	c3.7-7.1,9.5-12.2,18-11.6l11-1l7,4c10.1,10.6,14.1,26.4,12.5,41c-1.7,16.1-3.9,35.7-4.3,37.4c-0.3,1,0.6,2.8,1.4,4.7
	c1.4,3.2,3.2,7.2,0.7,9.7c-1.5,1.4-2.4,3.3-2.5,5.3c0.1,1.8,1,3.5,2.4,4.6c3.2,2.8,1,14.9,0.9,15.4L700.6,464.3z"/>
<path class="st4" d="M679.6,384.6l-20.7-3.5c-3.7,10.1-4.8,21-3,31.6l-21.4,54.6l0.1,0c-2.7,2.6-2.7,6.9-0.1,9.6
	c2.6,2.7,6.9,2.7,9.6,0.1c2-2,2.6-4.9,1.5-7.5l27.1-46.5L679.6,384.6z"/>
<path class="st1" d="M655.5,395.7l24-5l3.9-17.4c0-7.5-6.1-13.5-13.5-13.5c-7.5,0-13.5,6.1-13.5,13.5
	C653.9,383,654.3,385.8,655.5,395.7z"/>
<circle class="st4" cx="671" cy="316.5" r="18.8"/>
<path class="st5" d="M692.8,302.2c-1.5-2.6-7.3,0.7-9.1-1.7c-1.4-2.1-3.2-3.9-5.4-5.3c-3.6-2.1-7.9-2.1-11.5-0.1
	c-1.3,0.9-2.7,1.7-4.1,2.4c-1.5,0.5-3.5,0.1-4.2-1.3c0.5,1.3,0.9,2.5,1.4,3.8c-2.5,1.2-5.6,0.2-7-2.2c-0.1,1.3-0.2,2.6-0.2,3.9
	c-0.2-0.7-1-1.2-1.7-1.1c-1,0.3-1.7,1.1-1.9,2c-1.2,3.5,1.7,7.6,5.3,8.2c2.3,0.4,4.5-0.4,6.8-0.7c2.3-0.3,4.9-0.1,6.3,1.7
	c1.4,1.7,1.1,4.2,1.2,6.5s1.1,4.9,3.3,5.2c1.5,0.2,3-0.9,4.5-0.8c2.2,0.1,3.6,2.6,3.4,4.8c-0.2,2.2-1.6,4-2.9,5.8
	c2.2,0.2,4.4,0.3,6.6,0.5l-0.8,0.2c5.4-0.3,9.5-5.5,10.1-10.8C693.3,318,695.4,306.9,692.8,302.2z"/>
</svg>
