<?xml version="1.0" encoding="utf-8"?>
<!-- Generator: Adobe Illustrator 25.0.0, SVG Export Plug-In . SVG Version: 6.00 Build 0)  -->
<svg version="1.1" id="Layer_1" xmlns="http://www.w3.org/2000/svg" xmlns:xlink="http://www.w3.org/1999/xlink" x="0px" y="0px"
	 viewBox="0 0 995.1 811.5" style="enable-background:new 0 0 995.1 811.5;" xml:space="preserve">
<style type="text/css">
	.st0{opacity:0.1;fill:#9381FF;enable-background:new    ;}
	.st1{fill:#9381FF;}
	.st2{fill:none;stroke:#535461;stroke-miterlimit:10;}
	.st3{fill:none;stroke:#535461;stroke-width:2;stroke-miterlimit:10;}
	.st4{opacity:0.25;enable-background:new    ;}
	.st5{fill:#5F546F;}
	.st6{opacity:0.1;enable-background:new    ;}
	.st7{fill:#EBECF0;}
	.st8{fill:#F8F9FA;}
	.st9{opacity:5.000000e-02;enable-background:new    ;}
	.st10{fill:url(#SVGID_1_);}
	.st11{fill:#FFBCC7;}
	.st12{opacity:3.000000e-02;enable-background:new    ;}
	.st13{fill:#FEB7C5;}
	.st14{fill:#5D526D;}
	.st15{fill:#D6E6F9;}
	.st16{fill:#94B6F0;}
	.st17{fill:#8E6F80;}
	.st18{fill:#CCCAD6;}
	.st19{fill:#FFE09C;}
	.st20{fill:#E7C4C3;}
	.st21{fill:#FF7F8E;}
	.st22{fill:#94CC79;}
	.st23{opacity:0.2;fill:#FFFFFF;enable-background:new    ;}
	.st24{fill:#AD5975;}
	.st25{fill:#DADAE5;}
	.st26{fill:none;}
	.st27{fill:#EFF0F4;}
</style>
<path class="st0" d="M102.6,439.4c36.7,62.7,29.8,146.9,13.6,213c-5.4,22.1-11.6,45.5-7,70.5c5.6,30.6,26.2,55,47,69.1
	c37.9,25.8,81.3,26.1,112.8,0.8c27.3-21.9,45.2-60.7,73-81.3c46.6-34.6,110.4-11.5,165.8,23c39.2,24.5,82.4,55.3,118.6,39.2
	c25.5-11.3,41.4-44.5,48.9-80.8c3.6-17.5,5.8-36.8,14-50c4.9-7.9,11.6-13.1,18.6-17.3c63.6-38.5,149.6-3.1,211-47
	c41.4-29.6,65-92.2,72.8-159.5s1.4-139.6-6.5-210.9c-5.7-50.6-13.3-104.9-38.7-146.6C919.5,17.5,877-2.9,840.1,0.3
	s-69,26.9-96.6,56.1c-34.5,36.4-65.7,83.3-110.3,94.2c-30.4,7.5-63.7-2.7-96-8.8c-54-10.2-107.3-8.8-160.2-6.7
	c-50.6,2.1-101.6,4.9-148.8,22.4c-33.4,12.4-59,39.2-90.2,56.3c-20.3,11.1-43.2,12.1-62.1,27.1c-23.3,18.5-43.5,53.2-34.2,97.9
	C50.7,381.3,83.1,406.1,102.6,439.4z"/>
<path class="st1" d="M7.1,307.3c0,0-49.6,77.4,112.9,78.8c0,0,2.4-67.4-50.7-95.1c-21.4-11.2-47.8-4.7-61.4,15.2L7.1,307.3z"/>
<path class="st2" d="M7.5,306c0,0,83.2,16.4,112.6,80.1"/>
<path class="st3" d="M127.3,375.7c0,0-53.4-69.1-48.6-137.1c2-28.6-4.7-57.1-20.2-81.2c-7.4-11.4-15.8-22.1-25.1-32"/>
<path class="st1" d="M36.2,82.4c3.7,9.6-2.8,44-2.8,44s-28.1-21-31.9-30.5C-2,86.3,2.9,75.6,12.5,72C21.9,68.5,32.4,73.1,36.2,82.4z
	"/>
<path class="st1" d="M85.6,124.2c-2.1,10.1-26.3,35.5-26.3,35.5s-12.2-32.9-10.2-43c2.1-10.1,11.9-16.5,22-14.4
	C81.2,104.3,87.6,114.1,85.6,124.2z"/>
<path class="st1" d="M119.6,215.2c-6.9,7.6-40.6,17.4-40.6,17.4S85,198,91.9,190.4c6.8-7.7,18.5-8.5,26.2-1.8
	c7.7,6.8,8.5,18.5,1.8,26.2C119.8,215,119.7,215.1,119.6,215.2z"/>
<path class="st1" d="M129.9,289.9c-5.5,8.7-37.1,24-37.1,24s0.1-35.1,5.6-43.8c5.3-8.8,16.7-11.6,25.5-6.4s11.6,16.7,6.4,25.5
	C130.2,289.5,130,289.7,129.9,289.9L129.9,289.9z"/>
<path class="st1" d="M23.6,175.8c9.5,4,44.1-1.6,44.1-1.6s-20.2-28.7-29.7-32.7c-9.5-4-20.4,0.5-24.4,9.9
	C9.7,160.9,14.2,171.8,23.6,175.8z"/>
<path class="st1" d="M36.8,262.9c10.2,1,41.6-14.7,41.6-14.7s-27.8-21.3-38.1-22.3c-10.2-0.7-19.1,7-19.8,17.3
	C19.8,253,27,261.7,36.8,262.9L36.8,262.9z"/>
<path class="st1" d="M61.2,345.9c9.9,2.7,43.5-7.5,43.5-7.5S80.8,312.6,70.9,310c-9.9-2.9-20.2,2.8-23,12.6
	c-2.9,9.9,2.8,20.2,12.6,23C60.7,345.7,60.9,345.8,61.2,345.9z"/>
<path class="st4" d="M36.2,82.4c3.7,9.6-2.8,44-2.8,44s-28.1-21-31.9-30.5C-2,86.3,2.9,75.6,12.5,72C21.9,68.5,32.4,73.1,36.2,82.4z
	"/>
<path class="st4" d="M85.6,124.2c-2.1,10.1-26.3,35.5-26.3,35.5s-12.2-32.9-10.2-43c2.1-10.1,11.9-16.5,22-14.4
	C81.2,104.3,87.6,114.1,85.6,124.2z"/>
<path class="st4" d="M119.6,215.2c-6.9,7.6-40.6,17.4-40.6,17.4S85,198,91.9,190.4c6.8-7.7,18.5-8.5,26.2-1.8
	c7.7,6.8,8.5,18.5,1.8,26.2C119.8,215,119.7,215.1,119.6,215.2z"/>
<path class="st4" d="M129.9,289.9c-5.5,8.7-37.1,24-37.1,24s0.1-35.1,5.6-43.8c5.3-8.8,16.7-11.6,25.5-6.4s11.6,16.7,6.4,25.5
	C130.2,289.5,130,289.7,129.9,289.9L129.9,289.9z"/>
<path class="st4" d="M23.6,175.8c9.5,4,44.1-1.6,44.1-1.6s-20.2-28.7-29.7-32.7c-9.5-4-20.4,0.5-24.4,9.9
	C9.7,160.9,14.2,171.8,23.6,175.8z"/>
<path class="st4" d="M36.8,262.9c10.2,1,41.6-14.7,41.6-14.7s-27.8-21.3-38.1-22.3c-10.2-0.7-19.1,7-19.8,17.3
	C19.8,253,27,261.7,36.8,262.9L36.8,262.9z"/>
<path class="st4" d="M61.2,345.9c9.9,2.7,43.5-7.5,43.5-7.5S80.8,312.6,70.9,310c-9.9-2.9-20.2,2.8-23,12.6
	c-2.9,9.9,2.8,20.2,12.6,23C60.7,345.7,60.9,345.8,61.2,345.9z"/>
<polygon class="st5" points="123,140.1 123,481.9 577.8,393.5 569.1,131.4 "/>
<polygon class="st6" points="123,140.1 123,481.9 577.8,393.5 569.1,131.4 "/>
<polygon class="st5" points="977.9,543.1 977.9,656.1 497.1,796.5 492.1,794 111.8,596.7 111.8,129.6 582.5,114.3 585.4,373.6 
	566.6,379.4 559.3,136.9 145.1,151.3 142.2,502.5 502.9,660.4 503.1,660.3 "/>
<polygon class="st6" points="977.9,543.1 977.9,656.1 497.1,796.5 492.1,794 503.1,660.3 "/>
<path class="st7" d="M398.2,379c0,0-232.8,23.2-255.5,56.9s-0.2,74.9-0.2,74.9l359.9,156.4l488.1-126c0,0-13-88.4-53.6-98.5
	s-363.6-79.7-363.6-79.7S443.1,355.1,398.2,379z"/>
<path class="st8" d="M142.6,436.2L509.7,563c0,0,391.6-118.8,447.1-107.5c0,0-274-98-383.4-93.8c-87.2,3.4-178.5,17.7-178.5,17.7
	S152.7,403.7,142.6,436.2z"/>
<path class="st1" d="M184.2,326l113.9-96c12.7-10.7,31.6-9.1,42.3,3.6l57.3,68c10.7,12.7,9.1,31.6-3.6,42.3l-113.9,96
	c-12.7,10.7-31.6,9.1-42.3-3.6l-57.3-68C169.9,355.6,171.5,336.7,184.2,326z"/>
<path class="st6" d="M184.2,327l113.9-96c12.7-10.7,31.6-9.1,42.3,3.6l57.3,68c10.7,12.7,9.1,31.6-3.6,42.3l-113.9,96
	c-12.7,10.7-31.6,9.1-42.3-3.6l-57.3-68C169.9,356.6,171.5,337.7,184.2,327z"/>
<path class="st1" d="M192.6,325.3L296,238.2c12.7-10.7,31.6-9.1,42.3,3.6l51,60.5c10.7,12.7,9.1,31.6-3.6,42.3l-103.5,87.2
	c-12.7,10.7-31.6,9.1-42.3-3.6l-51-60.5C178.3,355,179.9,336,192.6,325.3z"/>
<path class="st9" d="M217.2,380.9c2.9-3.9,6-8,10.5-9.7c2.6-1,5.5-1.2,8.1-2.3c5.4-2.3,8.3-8.1,10.3-13.7s3.7-11.5,8-15.5"/>
<path class="st9" d="M242.2,390.3c2.9-3.9,6-8,10.5-9.7c2.6-1,5.5-1.2,8.1-2.3c5.4-2.3,8.3-8.1,10.3-13.7s3.7-11.5,8-15.5"/>
<path class="st9" d="M296.8,309.4c2.9-3.9,6-8,10.5-9.7c2.6-1,5.5-1.2,8.1-2.3c5.4-2.3,8.3-8.1,10.3-13.7s3.7-11.5,8-15.5"/>
<path class="st6" d="M306.4,373.9c2.9-3.9,6-8,10.5-9.7c2.6-1,5.5-1.2,8.1-2.3c5.4-2.3,8.3-8.1,10.3-13.7s3.7-11.5,8-15.5"/>
<path class="st1" d="M366.2,304l113.9-96c12.7-10.7,31.6-9.1,42.3,3.6l57.3,68c10.7,12.7,9.1,31.6-3.6,42.3l-113.9,96
	c-12.7,10.7-31.6,9.1-42.3-3.6l-57.3-68C351.9,333.6,353.5,314.7,366.2,304z"/>
<path class="st6" d="M366.2,304l113.9-96c12.7-10.7,31.6-9.1,42.3,3.6l57.3,68c10.7,12.7,9.1,31.6-3.6,42.3l-113.9,96
	c-12.7,10.7-31.6,9.1-42.3-3.6l-57.3-68C351.9,333.6,353.5,314.7,366.2,304z"/>
<path class="st1" d="M374.6,303.3L478,216.2c12.7-10.7,31.6-9.1,42.3,3.6l51,60.5c10.7,12.7,9.1,31.6-3.6,42.3l-103.5,87.2
	c-12.7,10.7-31.6,9.1-42.3-3.6l-51-60.5C360.3,332.9,361.9,314,374.6,303.3z"/>
<path class="st9" d="M399.2,358.9c2.9-3.9,6-8,10.5-9.7c2.6-1,5.5-1.2,8.1-2.3c5.4-2.3,8.3-8.1,10.3-13.7s3.7-11.5,8-15.5"/>
<path class="st9" d="M424.2,368.3c2.9-3.9,6-8,10.5-9.7c2.6-1,5.5-1.2,8.1-2.3c5.4-2.3,8.3-8.1,10.3-13.7s3.7-11.5,8-15.5"/>
<path class="st9" d="M478.8,287.4c2.9-3.9,6-8,10.5-9.7c2.6-1,5.5-1.2,8.1-2.3c5.4-2.3,8.3-8.1,10.3-13.7s3.7-11.5,8-15.5"/>
<path class="st6" d="M488.3,351.9c2.9-3.9,6-8,10.5-9.7c2.6-1,5.5-1.2,8.1-2.3c5.4-2.3,8.3-8.1,10.3-13.7s3.7-11.5,8-15.5"/>
<linearGradient id="SVGID_1_" gradientUnits="userSpaceOnUse" x1="636.2239" y1="127.9462" x2="636.2239" y2="640.9559" gradientTransform="matrix(1 0 0 -1 -102.44 769.75)">
	<stop  offset="0" style="stop-color:#808080;stop-opacity:0.25"/>
	<stop  offset="0.54" style="stop-color:#808080;stop-opacity:0.12"/>
	<stop  offset="1" style="stop-color:#808080;stop-opacity:0.1"/>
</linearGradient>
<path class="st10" d="M943.4,634.2c-0.8-3.3-3.4-5.8-6.7-6.6c-28.1-7-53.5-60.5-53.5-60.5s-1-10.2-8.1-25.5
	c-3.3-7.1-5.8-19.1-7.4-29.9c9.1-4.1,16-8.7,11.5-11.8c-2.5-1.7-5.3-2.9-8.3-3.5l-2.9-15.8c1-11.2-7.1-48.9-7.1-48.9l-7-58.4
	c0,0,0.8-1.4-0.5-3.6v-0.1l-0.2-0.3l-0.1-0.1l-0.2-0.3l-0.1-0.2l-0.4-0.5l-0.2-0.3l-0.2-0.2l-0.3-0.3l-0.2-0.2l-0.4-0.3l-0.2-0.2
	l-0.5-0.4l-0.2-0.2c-0.5-0.4-1-0.8-1.7-1.2l-0.2-0.1l-0.8-0.5l-0.3-0.2l-0.8-0.5l-0.3-0.2l-1-0.5l-0.2-0.1c-0.9-0.4-1.8-0.9-2.8-1.4
	l-0.2-0.1l-1.3-0.6l-0.5-0.2l-1.2-0.5l-0.5-0.2l-1.4-0.5l-0.5-0.2l-2-0.7c-0.7-0.2-1.3-0.4-2-0.6l-0.7-0.2l-1.2-0.3l-0.8-0.2
	l-1.1-0.2l-0.7-0.1l-1.1-0.2l-0.6-0.1c-0.5-0.1-1.1-0.1-1.6-0.2h-0.3l-1.2-0.1h-0.5h-1.5h-1h-0.4l-1.2,0.1h-0.1
	c-0.4,0.1-0.9,0.1-1.3,0.2h-0.1l-1,0.2l-0.3,0.1l-0.8,0.2l-0.3,0.1l-0.7,0.2l-0.3,0.1h-0.1l-0.2,0.1c-8.6,3-23.5,5.4-39.5,7.1
	c-3.1-10.8-5.8-21.6-6.5-28.8c-2-20.4-12.2-43.8-12.2-43.8c-0.1,0.3-0.2,0.5-0.4,0.8c0-0.3-0.1-0.5-0.1-0.8
	c-1.4-7.3-6.5-10-22.9-16.2c-16-6.1-23.5,3.2-26.2,8.3c-0.2,0.3-0.3,0.6-0.4,0.8l-1.9-0.9l-23.4,31.6l-0.6,1.2l-16,31.3l-0.5,1.1
	l-0.2,0.1l-22.6,52.2c-12.7-6.4-33.4-6.4-33.4-6.4l-10.2-9.2l-25.5-30.5c-2.5-8.4-5.5-16.5-9.2-24.4c-3.3-7.1-5.1-18.1-6.1-26.7
	c2.5-3.4,4.6-7.1,6.1-11l-0.6-0.7c0.2-0.4,0.4-0.9,0.6-1.3c0,0-20.4-26.5-20.4-36.6s-57-18.3-57-18.3s0,0.2-0.2,0.5
	c-2.3-1.3-4.3-3.1-6-5.2c-0.3-0.4-0.6-0.7-0.8-1.1c3.7-4,6.6-8.6,8.5-13.7c1.8,1,3.7,1.5,5.8,1.5c2.5,0,5.6-1.8,5.1-4.2l0,0
	c0.1-0.3,0.1-0.7,0-1c-0.3-1.4-1.6-2.3-2.7-3.4c-1.2-1.2-1.9-2.7-2.1-4.3c0.1-0.9,0.5-1.8,1.1-2.4c0.9-0.7,1.9-1.4,2.9-1.9
	c2.3-1.8,2.7-5.1,2.6-8.1c0-0.6,0-1.3,0-1.9c-0.3-6.7-1.1-13.3-2.3-19.9c-0.3-1.7-0.7-3.4-1.2-5c-0.9-2.3-2-4.4-3.3-6.5l-9.9-16.5
	c-1.1-2.2-2.7-4.1-4.5-5.8c-6.9-5.3-15,1.2-21.6-2.6c-3.5-1.9-5.9-4.4-10-5.3c-4.7-1.1-9.7-0.4-14.3,0.6c-1.3,0.2-2.5,0.7-3.5,1.6
	c-1.3,1.4-1.3,3.4-1.8,5.2c-1,3.5-3.9,6.1-7,8s-6.5,3.3-9.4,5.5c-5.3,4-8.3,10.2-11.8,15.8c-4.7,7.5-10.6,14.1-17.5,19.7
	c0.1,0.2,0.3,0.5,0.4,0.6l-0.4,0.4c1,2.3,4.6,1.6,6.6,3.1c0.9,0.7,1.4,1.7,1.4,2.8c-0.2,1.6-0.7,3.1-1.4,4.6
	c-0.9,1.9-1.9,4.1-1.7,6.1c-0.2,1.2,0.2,2.5,1,3.4c0.6,0.5,1.3,1.1,1.8,1.7c0.2,0.3,0.3,0.6,0.4,1c-0.3,1.9-1.9,3.9-2.1,5.9
	c0,0.3,0,0.6,0,0.9c0,0,0,0.1,0,0.2c-0.2,2.7,2.2,4.9,4.7,6.1c2.3,1.1,4.9,1.8,6.7,3.5c-1.3,2-2.6,4.2-2.4,6.4
	c-0.1,0.9,0.1,1.8,0.5,2.6c1.6,3.2,6.1,3.2,9.5,2.4c0.9-0.3,1.9-0.4,2.8-0.1c0.8,0.4,1.5,1,2.1,1.7c3.7,3.7,10.9,2.3,13.3-2.3
	l-0.2,0.8c-0.3,1.3-0.7,2.5-1,3.9c0-0.3,0-0.5,0-0.8c0,0-19.3,4.5-34.5,7.8c-8.8,1.9-16.3,7.5-20.7,15.4l-14.1,25.6
	c0,0,0.1,0.4,0.5,1.2l-0.5,0.9c0.9,2.2,2,4.2,3.4,6.2c-6.4,15.2-20,44.8-31.9,55.9c-1.9,1.8-4,3.5-6.1,5.1c-2.4-0.1-4.7,0.4-6.9,1.4
	c-2.4,1.2-4.6,2.9-6.2,5c-3.5,0.6-5.2-0.3-5.2-0.3s-11.7,9.2-19.2,19.1c-1.5,0.6-3.1,1.1-4.6,1.8c-6.9,2.9-13.9,8.6-13.9,16.1
	c0,5.3,3.6,10,5.4,15l-4.4,5.1c0,0-9.2,7.1-17.3,9.2S221.6,446,221.6,446L191,467.4l-3.2,2.1c-6.6-9.5-13.1-23.5-13.1-23.5
	s-11.2-20.4-23.4,2l-0.4,0.7c-1.9,3.6-3.3,7.5-3.9,11.5c-14.3-7-21.3,20.4-22.2,26.5c-0.2,1.4-2.1,8.1,0.4,13.7
	c7,16.2,20.6,28.5,37.4,33.9c1.6,0.5,3.3,0.9,5,1.3c15.3,3,25.5-19.3,25.5-19.3l0.3-3.2c2.3,0.2,4.7,0.3,7,0.2c1.5-0.1,3-0.1,4.7,0
	c8.2,0.2,16.3-1.3,23.9-4.4l13-5.2l2.2-0.9c-0.1,0.4-0.1,0.9-0.2,1.3l48.9-16.2c0,0,16.7-2.1,35.3-4.8c0.6,1.6,1.1,3.3,1.8,4.9
	c4.2,10,14,16.8,24.3,20s21.3,3.5,32.2,3.8c1.1,0,2.2,0,3.4,0c3.5,0,7.2-0.1,10.4-1.5c3.6-1.6,6.6-5.4,5.9-9.3
	c-0.5-3.1-3-5.3-5.3-7.4c-4.4-4.1-8.6-8.6-10.8-14.2c-0.5-1.3-0.9-2.7-1.1-4.1c2.8,2.6,6.2,4.5,9.9,5.5c20.4,5.1,56,10.2,66.2,7.1
	s35.6-9.2,74.3,0s49.9,6.1,49.9,6.1l-0.2-0.2c10.1,2.4,24.8,4.5,38.6,1.9c8.1-1.5,16.3-2.6,24.5-3.1c5.2-0.4,11.2-1,17.4-2
	c11-1.9,21.1-7.5,28.4-16c20.3,2.8,52.2-9,52.2-9l4.7-2.4l3.5,8.5c0,0-5.1,26.5,26.5,37.7c15,5.3,30.4,9,46.2,11.2
	c5.1,34.7,11.8,48.9,11.8,48.9l-11.2,16.3c-3.5,13.8,7,19.5,16.8,21.8c8.2,2,16,5.7,22.8,10.8c14.2,10.5,41.8,21.3,41.8,21.3
	C940.8,645.2,944.6,639.3,943.4,634.2z M580.9,407.3l6.3,6.3l-2.2-0.2l-3.9,7.1h-19.5c-2,0-11.2-7.1-11.2-7.1l-2.6,0.3l4.6-3.3
	c0,0,6.7-3.6,5.8-17.1L580.9,407.3z M511.2,381.2c-1.7-5.5-3.6-11.4-5.6-17.1c0.2-2.3,0.5-4.5,0.8-6.8l7.2,22.4L511.2,381.2z
	 M368.6,350c-2.3,4-4.9,7.8-7.8,11.2c-0.9-0.3-1.8-0.5-2.8-0.7l0,0C358,360.5,362.7,356.3,368.6,350z M786.6,451.1
	c-0.2-1.4-0.3-2.9-0.6-4.5l12.8-6.6c8.2,6.1,11.2,23.5,12.2,39.3C806.6,477.1,788.4,468,786.6,451.1z"/>
<path class="st11" d="M800.1,365.9c0,0,6-15,29-7s19.1,14.6,19.1,14.6l-3.1,13.4l-12,7l-20-2L800.1,365.9z"/>
<path class="st12" d="M848.4,373c0,0.2-0.1,0.4-0.2,0.5l-3.1,13.4l-12,7l-20-2l-13-26c1.7-3.6,4.7-6.4,8.4-7.8
	c4.5-1.9,11.1-2.5,20.6,0.8C848.2,365.6,848.7,371.3,848.4,373z"/>
<path class="st11" d="M859.1,486.9c0,0,3,37,10,52s8,25,8,25s24.9,52.5,52.5,59.4c3.2,0.7,5.8,3.2,6.6,6.5
	c1.1,5.1-2.6,10.8-30.1,5.2c0,0-27.1-10.6-41.1-21c-6.7-5-14.3-8.6-22.4-10.6c-9.6-2.3-19.9-7.9-16.5-21.4l11-16c0,0-9-19-14-67
	S859.1,486.9,859.1,486.9z"/>
<path class="st11" d="M751.1,301.9c0,14-50-13-50-13c0.3-1,0.8-2,1.3-2.9c2.7-5,10-14.1,25.7-8.1c16.1,6.1,21,8.8,22.5,16
	C751,296.6,751.2,299.2,751.1,301.9z"/>
<polygon class="st11" points="692.1,305.9 662.1,363.9 659.3,351.8 660.9,348.7 676.6,318 677.1,316.9 "/>
<polygon class="st11" points="588.1,419.9 572.1,454.9 561.1,465.9 556,460.5 553.9,458.3 542.1,445.9 553.1,419.9 "/>
<path class="st13" d="M503.1,261.9c0,0-68,32-70,31s-28-7-16-31c3.5-7,6.2-14.4,8-22c2-7.8,3-15.9,3-24c0,0,42-19,45,3
	c1,7.1,3.3,12,6,15.4c3.2,4.1,7.8,6.9,13,7.6L503.1,261.9z"/>
<path class="st13" d="M202.1,483.9l-3,30c0,0-10,22-25,19c-1.6-0.3-3.3-0.8-4.9-1.2c-16.5-5.2-29.9-17.4-36.7-33.3
	c-2.4-5.5-0.6-12.1-0.4-13.5c1-7,10-42,29-20s30,33,30,33L202.1,483.9z"/>
<path class="st14" d="M365.1,366.9l-85,40l-12,14c0,0-9,7-17,9s-24,15-24,15l-30,21l-14,9l14,11l43-10l52-11l27-13l77-67
	L365.1,366.9z"/>
<path class="st12" d="M202.1,483.9l-3,30c0,0-10,22-25,19c-1.6-0.3-3.3-0.8-4.9-1.2c-16.5-5.2-29.9-17.4-36.7-33.3
	c-2.4-5.5-0.6-12.1-0.4-13.5c1-7,10-42,29-20s30,33,30,33L202.1,483.9z"/>
<path class="st9" d="M365.1,366.9l-85,40l-12,14c0,0-9,7-17,9s-24,15-24,15l-30,21l-14,9l14,11l43-10l52-11l27-13l77-67L365.1,366.9
	z"/>
<path class="st13" d="M261.1,495.9l-13.9,5.6l-12.8,5.1c-7.5,3-15.4,4.5-23.5,4.3c-1.6,0-3.1,0-4.6,0c-11.6,0.6-23-3.3-31.8-10.8
	c-1.7-1.4-3.4-2.8-5.2-4c-15.5-11-20.5-31.8-11.5-48.5l0.4-0.7c12-22,23-2,23-2s11,24,19,30c5.5,4.1,23.4,0.3,34.3-2.5
	c5.1-1.3,8.7-2.5,8.7-2.5L261.1,495.9z"/>
<path class="st6" d="M247.2,501.5c3.3-21.4-5-27.7-12.7-29.1c5.1-1.3,8.7-2.5,8.7-2.5l18,26L247.2,501.5z"/>
<path class="st14" d="M412.1,377.9l-104,73c0,0-27,16-37,12s-46,10-46,10s30-9,24,29l48-16c0,0,72-9,82-14s52-91,52-91L412.1,377.9z
	"/>
<path class="st13" d="M554.1,292.9c0,0,1,26,7,39c3.6,7.8,6.6,15.8,9,24l25,30l10,9c0,0,38,0,42,16s-58,5-58,5l-9-9l-42-26l-24-73
	L554.1,292.9z"/>
<path class="st13" d="M363.1,289.9c0,0-19,49-35,64s-24,11-24,11s-42,33-17,41s38-27,38-27l36-18c0,0,33-29,31-50
	S363.1,289.9,363.1,289.9z"/>
<path class="st12" d="M363.1,289.9c0,0-19,49-35,64s-24,11-24,11s-42,33-17,41s38-27,38-27l36-18c0,0,33-29,31-50
	S363.1,289.9,363.1,289.9z"/>
<path class="st6" d="M443.7,264.9c-7.4,0.4-19.2,3.7-19.6-19.9c0,0-18.9,4.4-33.9,7.7c-8.6,1.9-16.1,7.4-20.3,15.2l-13.9,25.2
	c0,0,6,17,25,19c0,0,4,40-32,65s93,60,93,60l64-21c0,0-7-72,14-91c0,0,30-2,41-30c0,0-20-26-20-36s-56-18-56-18s-6.8,27.4-30.4,24.3
	C451,264.7,447.4,264.6,443.7,264.9z"/>
<path class="st15" d="M443.7,262.9c-7.4,0.4-19.2,3.7-19.6-19.9c0,0-18.9,4.4-33.9,7.7c-8.6,1.9-16.1,7.4-20.3,15.2l-13.9,25.2
	c0,0,6,17,25,19c0,0,4,40-32,65s93,60,93,60l64-21c0,0-7-72,14-91c0,0,30-2,41-30c0,0-20-26-20-36s-56-18-56-18s-6.8,27.4-30.4,24.3
	C451,262.7,447.4,262.6,443.7,262.9z"/>
<path class="st12" d="M859.1,486.9c0,0,3,37,10,52s8,25,8,25s24.9,52.5,52.5,59.4c3.2,0.7,5.8,3.2,6.6,6.5
	c1.1,5.1-2.6,10.8-30.1,5.2c0,0-27.1-10.6-41.1-21c-6.7-5-14.3-8.6-22.4-10.6c-9.6-2.3-19.9-7.9-16.5-21.4l11-16c0,0-9-19-14-67
	S859.1,486.9,859.1,486.9z"/>
<path class="st6" d="M848.4,373c0,0.2-0.1,0.4-0.2,0.5l-3.1,13.4l-12,7l-20-2l-13-26c1.7-3.6,4.7-6.4,8.4-7.8
	c-1.5,6.8-4.6,27,14.6,27.8c23,1,25-15,25-15L848.4,373z"/>
<path class="st16" d="M704.1,369.9c0,0,81-3,105-12c0,0-9,29,14,30s25-15,25-15l7,58c0,0,8,37,7,48l4,22c0,0-54,18-60,6
	c0,0,4-56-12-68l-48,25c0,0-46,17-62,5S704.1,369.9,704.1,369.9z"/>
<path class="st12" d="M704.1,369.9c0,0,81-3,105-12c0,0-9,29,14,30s25-15,25-15l7,58c0,0,8,37,7,48l4,22c0,0-54,18-60,6
	c0,0,4-56-12-68l-48,25c0,0-46,17-62,5S704.1,369.9,704.1,369.9z"/>
<path class="st6" d="M479.1,234.4c-13.8,15.7-37.3,18.1-54,5.6c2-7.8,3-15.9,3-24c0,0,42-19,45,3C474.1,226,476.4,231,479.1,234.4z"
	/>
<circle class="st13" cx="449.1" cy="205.9" r="40"/>
<path class="st6" d="M433,135.4c-1.3,0.2-2.5,0.7-3.4,1.5c-1.3,1.3-1.3,3.4-1.8,5.2c-1,3.4-3.8,6-6.9,7.9s-6.4,3.2-9.2,5.4
	c-5.2,3.9-8.1,10-11.6,15.6c-4.6,7.4-10.5,13.9-17.2,19.4c1,2.2,4.5,1.6,6.5,3.1c2.4,1.8,1.4,5.6,0,8.2s-2.7,6.2-0.6,8.3
	c0.6,0.5,1.2,1.1,1.8,1.7c1.6,2.3-1.4,5.1-1.6,7.8s2.2,4.8,4.6,6s5.2,1.9,7,3.8c-1.8,2.5-3.7,5.7-2.3,8.4c1.5,3.1,6,3.1,9.4,2.3
	c0.9-0.3,1.8-0.4,2.7-0.1c0.8,0.4,1.5,1,2,1.7c3.8,3.7,11.3,2.2,13.3-2.8c1.1-2.7,0.6-5.7,0.8-8.6c0.2-4.6,1.8-9,2.4-13.6
	c1-7.7-1-15.5-1.1-23.3c-0.1-0.5,0-1,0.3-1.5c0.5-0.5,1.1-0.8,1.8-0.8c4.4-0.6,8.7-1.4,13-2.5c3.3-0.9,7-2.2,8.1-5.5
	c-0.7,2.4,0.5,4.9,2.4,6.6c1.9,1.5,4.2,2.6,6.6,3.2c5.8,1.7,12.4,2.8,17.4-0.6c-0.3,6.2-0.5,12.5,1.7,18.3
	c2.2,5.8,7.5,10.8,13.6,10.8c2.5,0,5.5-1.7,5-4.1c-0.3-1.4-1.6-2.3-2.6-3.3c-2.1-2-3-5.6-1-7.7c0.9-0.7,1.8-1.3,2.8-1.9
	c2.5-2,2.7-5.7,2.6-8.9c-0.3-6.6-1-13.1-2.2-19.6c-0.3-1.7-0.7-3.3-1.2-4.9c-0.9-2.2-2-4.4-3.3-6.4l-9.7-16.2
	c-1.1-2.2-2.6-4.1-4.5-5.7c-6.8-5.2-14.7,1.1-21.2-2.5c-3.4-1.9-5.8-4.3-9.8-5.2C442.4,133.8,437.6,134.4,433,135.4z"/>
<path class="st17" d="M433,134.4c-1.3,0.2-2.5,0.7-3.4,1.5c-1.3,1.3-1.3,3.4-1.8,5.2c-1,3.4-3.8,6-6.9,7.9s-6.4,3.2-9.2,5.4
	c-5.2,3.9-8.1,10-11.6,15.6c-4.6,7.4-10.5,13.9-17.2,19.4c1,2.2,4.5,1.6,6.5,3.1c2.4,1.8,1.4,5.6,0,8.2s-2.7,6.2-0.6,8.3
	c0.6,0.5,1.2,1.1,1.8,1.7c1.6,2.3-1.4,5.1-1.6,7.8s2.2,4.8,4.6,6s5.2,1.9,7,3.8c-1.8,2.5-3.7,5.7-2.3,8.4c1.5,3.1,6,3.1,9.4,2.3
	c0.9-0.3,1.8-0.4,2.7-0.1c0.8,0.4,1.5,1,2,1.7c3.8,3.7,11.3,2.2,13.3-2.8c1.1-2.7,0.6-5.7,0.8-8.6c0.2-4.6,1.8-9,2.4-13.6
	c1-7.7-1-15.5-1.1-23.3c-0.1-0.5,0-1,0.3-1.5c0.5-0.5,1.1-0.8,1.8-0.8c4.4-0.6,8.7-1.4,13-2.5c3.3-0.9,7-2.2,8.1-5.5
	c-0.7,2.4,0.5,4.9,2.4,6.6c1.9,1.5,4.2,2.6,6.6,3.2c5.8,1.7,12.4,2.8,17.4-0.6c-0.3,6.2-0.5,12.5,1.7,18.3
	c2.2,5.8,7.5,10.8,13.6,10.8c2.5,0,5.5-1.7,5-4.1c-0.3-1.4-1.6-2.3-2.6-3.3c-2.1-2-3-5.6-1-7.7c0.9-0.7,1.8-1.3,2.8-1.9
	c2.5-2,2.7-5.7,2.6-8.9c-0.3-6.6-1-13.1-2.2-19.6c-0.3-1.7-0.7-3.3-1.2-4.9c-0.9-2.2-2-4.4-3.3-6.4l-9.7-16.2
	c-1.1-2.2-2.6-4.1-4.5-5.7c-6.8-5.2-14.7,1.1-21.2-2.5c-3.4-1.9-5.8-4.3-9.8-5.2C442.4,132.8,437.6,133.4,433,134.4z"/>
<path class="st11" d="M414.1,448.9l-15,10c-5.4-10.1-11.8-19.7-19.3-28.4c-7.4-8.7-16.8-17.6-27.7-23.6c-29-16,28-25,28-25
	c4.1,6,8.8,11.7,14,16.8c10.1,10,24.4,20,39,16.2C460.1,407.9,414.1,448.9,414.1,448.9z"/>
<rect x="441.1" y="391.9" class="st18" width="62" height="21"/>
<path class="st11" d="M461.1,348.9c0,0-9-20-14-26s-6-27-6-27s-6-37,12-45s13,46,13,46l-1,8c0,0,27,25,26,44
	S461.1,348.9,461.1,348.9z"/>
<path class="st12" d="M461.1,348.9c0,0-9-20-14-26s-6-27-6-27s-6-37,12-45s13,46,13,46l-1,8c0,0,27,25,26,44
	S461.1,348.9,461.1,348.9z"/>
<path class="st6" d="M397.1,401.9c0,0,9-4,11-10s27-3,27-3l30-6c0,0,8-12,0-18s-8-19-8-19s27.8,0,34.3-7.1c0.3-0.3,0.5-0.6,0.7-0.9
	c5-8,26,66,26,66l-50-10l-38,22C430.1,415.9,408.1,419.9,397.1,401.9z"/>
<path class="st1" d="M397.1,400.9c0,0,9-4,11-10s27-3,27-3l30-6c0,0,8-12,0-18s-8-19-8-19s27.8,0,34.3-7.1c0.3-0.3,0.5-0.6,0.7-0.9
	c5-8,26,66,26,66l-50-10l-38,22C430.1,414.9,408.1,418.9,397.1,400.9z"/>
<path class="st6" d="M553.9,458.3l-11.8-12.4l11-26h9C562.1,419.9,567.9,446.9,553.9,458.3z"/>
<path class="st18" d="M530.1,414.9l20-2c0,0,9,7,11,7c0,0,6,28-9,39c-15,11-34-10-34-10l-17-20L530.1,414.9z"/>
<path class="st11" d="M836.1,518.9c0,0-25-1-56-12s-26-37-26-37L736,425.4l-3.9-9.5l39-24c0,0,1.4,6.1,3.2,14.7
	c2.8,13.1,6.5,31.8,7.8,43.3c2,19,25,28,25,28l41,17c0,0,15-4,25,3S836.1,518.9,836.1,518.9z"/>
<polygon class="st6" points="578.3,419.9 588.1,419.9 572.1,454.9 561.1,465.9 556,460.5 "/>
<path class="st6" d="M751.1,301.9c0,14-50-13-50-13c0.3-1,0.8-2,1.3-2.9c36.7,17.9,46.1,10.7,48.2,7.8
	C751,296.5,751.2,299.2,751.1,301.9z"/>
<path class="st6" d="M677.1,316.9l15-11l-30,58l-2.8-12.2l1.5-3c20.1-14,17.1-27,15.7-30.8L677.1,316.9z"/>
<path class="st6" d="M774.4,406.6c-12.5,3.1-30.5,13.9-38.4,18.8l-3.9-9.5l39-24C771.1,391.9,772.6,398,774.4,406.6z"/>
<path class="st16" d="M584.1,412.9l-33,60l24,15c0,0,26.6,10.2,50.7,5.6c7.9-1.5,15.9-2.5,24-3.1c5.1-0.3,11-1,17.1-2
	c18.4-3.1,33.3-16.7,38-34.8c6.2-23.5,14.7-59.5,12.5-71.3c-0.1-0.5-0.2-1-0.4-1.5l10,30l5,15c0,0,36-24,50-22c0,0-17-47-19-67
	s-12-43-12-43s-5,15-51-8l-23,31c0,0,9,16-17,33l-29,67L584.1,412.9z"/>
<path class="st6" d="M394.1,399.9c0,11.8-5.2,23-14.3,30.6c-7.4-8.7-16.8-17.6-27.7-23.6c-29-16,28-25,28-25c4.1,6,8.8,11.7,14,16.8
	C394.1,399.1,394.1,399.5,394.1,399.9z"/>
<circle class="st11" cx="352.1" cy="399.9" r="40"/>
<path class="st6" d="M589.1,490.9c0,0-11,3-49-6s-63-3-73,0s-45-2-65-7s-22-35-22-35c7,1,38-28,38-28c18-16,51-16,51-16l12.8,2.3
	l54.2,9.7l6.2,9.4L589.1,490.9z"/>
<path class="st1" d="M588.1,491.9c0,0-11,3-49-6s-63-3-73,0s-45-2-65-7s-22-35-22-35c7,1,38-28,38-28c18-16,51-16,51-16l12.8,2.3
	l54.2,9.7l6.2,9.4L588.1,491.9z"/>
<path class="st6" d="M541.3,421.3l-79.2,56.6c-22.8,7.7-36.3,3.4-44.3-4.5c-15-14.8-10-40.2,9.2-48.9c8.3-3.6,17.1-5.9,26.1-6.6
	l27.8-15.7l54.2,9.7L541.3,421.3z"/>
<path class="st6" d="M566.7,419.9c0,0,2.9,2.5,6.9,0"/>
<path class="st19" d="M454,222.1c0,0-3-0.1-3.1,2.4c-0.1,1.2,1.8,8.3,3.8,15.4c1,3.5,2,7,2.8,9.8c1,3.4,1.7,5.8,1.7,5.8l0.8,1.7
	l4.7,10.1l4.5,9.5l2.8,3.6l14.5-10l7.2-18.3l-3.3-1.5l-0.6-0.2l-6.4-5l-18-14l-8.1-6.3l-1-0.7L454,222.1z"/>
<path class="st20" d="M476.3,286.4c0,0,15.9-10.6,18.8-20c0,0,2.7-7.9,2.6-11.9c0,0,0.6-3.7-6.7-3.5c0,0-1.2,13.6-10.1,20.8
	l-8.9,7.2L476.3,286.4z"/>
<ellipse transform="matrix(0.1104 -0.9939 0.9939 0.1104 161 709.6567)" class="st21" cx="476.9" cy="264.9" rx="5.9" ry="5"/>
<ellipse transform="matrix(0.1104 -0.9939 0.9939 0.1104 175.1857 689.1349)" class="st21" cx="472.6" cy="246.7" rx="5.9" ry="5"/>
<path class="st21" d="M483.4,245.2c-1.7,1-2.8,2.8-3,4.8c-0.4,3.2,1.6,6.1,4.3,6.4s5.3-2.1,5.6-5.3c0-0.2,0-0.5,0-0.7l-0.6-0.2
	L483.4,245.2z"/>
<path class="st21" d="M463.6,255.9c-1.3-0.1-2.6,0.3-3.5,1.2l4.7,10.1c1.8-1,3-2.8,3.1-4.9C468.2,259,466.3,256.2,463.6,255.9z"/>
<path class="st21" d="M459,237.9c-1.7-0.1-3.3,0.6-4.3,1.9c1,3.5,2,7,2.8,9.8h0.2c2.7,0.3,5.3-2.1,5.6-5.3S461.7,238.2,459,237.9z"
	/>
<path class="st21" d="M457.2,224.9c-0.2,0.6-0.4,1.2-0.5,1.9c-0.4,3.2,1.6,6.1,4.3,6.4c1.7,0.1,3.3-0.6,4.3-2L457.2,224.9z"/>
<path class="st22" d="M472.1,270.9l-1.9-0.2c0.5-1.4,0.7-2.9,0.6-4.4c0-0.1,0-0.2-0.1-0.3c-0.5-1.8,1.9,0.2,1.9,0.2
	S472.8,270.1,472.1,270.9z"/>
<path class="st22" d="M478.6,258l-1.9-0.2c0.5-1.4,0.7-2.9,0.6-4.4c0-0.1,0-0.2-0.1-0.3c-0.5-1.8,1.9,0.2,1.9,0.2
	S479.3,257.2,478.6,258z"/>
<path class="st22" d="M472.3,255l-1.9-0.2c0.5-1.4,0.7-2.9,0.6-4.4c0-0.1,0-0.2-0.1-0.3c-0.5-1.8,1.9,0.2,1.9,0.2
	S473.1,254.2,472.3,255z"/>
<path class="st22" d="M463.7,246.4l-1.9-0.2c0.5-1.4,0.7-2.9,0.6-4.4c0-0.1,0-0.2-0.1-0.3c-0.5-1.8,1.9,0.2,1.9,0.2
	S464.4,245.6,463.7,246.4z"/>
<path class="st22" d="M456.8,231.1l-1.9-0.2c0.5-1.4,0.7-2.9,0.6-4.4c0-0.1,0-0.2-0.1-0.3c-0.5-1.8,1.9,0.2,1.9,0.2
	S457.6,230.3,456.8,231.1z"/>
<path class="st22" d="M468.2,240.8l-1.9-0.2c0.5-1.4,0.7-2.9,0.6-4.4c0-0.1,0-0.2-0.1-0.3c-0.5-1.8,1.9,0.2,1.9,0.2
	S469,240,468.2,240.8z"/>
<path class="st20" d="M470.6,285.8c0,0,3.5,5.5,5.8,0.6c-0.8-3.5-2.4-6.7-4.8-9.4c0,0-13.2-24-13-28.1c0,0-7.4-24-6.7-25.5
	c0,0-1.3-1.6-1,5s6.3,25.3,6.3,25.3l7.6,19.2l4.1,6.2L470.6,285.8z"/>
<path class="st23" d="M470.6,285.8c0,0,3.5,5.5,5.8,0.6c-0.8-3.5-2.4-6.7-4.8-9.4c0,0-13.2-24-13-28.1c0,0-7.4-24-6.7-25.5
	c0,0-1.3-1.6-1,5s6.3,25.3,6.3,25.3l7.6,19.2l4.1,6.2L470.6,285.8z"/>
<path class="st11" d="M533.1,341.9c0,7-24,11-24,11l-3.4-6l-25.6-45c0,0-16-40,0-46s18,40,18,40s23,25.6,31.7,39.1
	C531.9,338.1,533.1,340.6,533.1,341.9z"/>
<path class="st6" d="M533.1,341.9c0,7-24,11-24,11l-3.4-6c8.9-0.3,20.3-8.9,24.1-12C531.9,338.1,533.1,340.6,533.1,341.9z"/>
<path class="st1" d="M416.8,470.4c8,7.9,21.5,12.2,44.3,4.5l91-65c0,0,13-7,0-38s-21-36-21-36s-16,14-27,13l10,31l-62,35
	c-9,0.8-17.8,3-26.1,6.6C406.8,430.3,401.8,455.7,416.8,470.4z"/>
<path class="st6" d="M317.4,360.3c-6.6,2.9-9.4,10.7-14.8,15.6s-13.1,6.6-19.9,9.5s-13.7,8.4-13.6,15.8s7.3,13.9,6.1,21.2
	c-0.6,3.8-3.5,6.9-4.1,10.7c-0.7,4.1,1.2,8.2,3.9,11.4c7.3,8.6,19.1,11.6,29.9,14.8s22.5,8,27.4,18.2c1.3,2.7,2,5.7,3.2,8.4
	c4.2,9.8,13.7,16.5,23.9,19.7s21,3.5,31.6,3.7c3.9,0.1,8,0.1,11.5-1.5s6.5-5.3,5.8-9.2c-0.5-3-3-5.2-5.2-7.3c-4.3-4-8.5-8.5-10.6-14
	s-2.1-12.2,1.6-16.8c4.4-5.5,12.2-6.6,17.9-10.6c10.2-7.3,10.3-24.8,0.2-32.3c-3.6-2.6-8-4-11.9-6.1c-11.7-6.5-18.4-19.4-29.1-27.4
	c-8.5-6.4-18.9-9.2-28-14.6C334.8,364.6,328.7,355.4,317.4,360.3z"/>
<path class="st24" d="M315.4,360.3c-6.6,2.9-9.4,10.7-14.8,15.6s-13.1,6.6-19.9,9.5s-13.7,8.4-13.6,15.8s7.3,13.9,6.1,21.2
	c-0.6,3.8-3.5,6.9-4.1,10.7c-0.7,4.1,1.2,8.2,3.9,11.4c7.3,8.6,19.1,11.6,29.9,14.8s22.5,8,27.4,18.2c1.3,2.7,2,5.7,3.2,8.4
	c4.2,9.8,13.7,16.5,23.9,19.7s21,3.5,31.6,3.7c3.9,0.1,8,0.1,11.5-1.5s6.5-5.3,5.8-9.2c-0.5-3-3-5.2-5.2-7.3c-4.3-4-8.5-8.5-10.6-14
	s-2.1-12.2,1.6-16.8c4.4-5.5,12.2-6.6,17.9-10.6c10.2-7.3,10.3-24.8,0.2-32.3c-3.6-2.6-8-4-11.9-6.1c-11.7-6.5-18.4-19.4-29.1-27.4
	c-8.5-6.4-18.9-9.2-28-14.6C332.8,364.6,326.7,355.4,315.4,360.3z"/>
<polygon class="st25" points="263.3,713.8 191.5,773.6 107,716.5 190.1,672.1 260,705.2 "/>
<polygon class="st26" points="154.7,588.8 190.7,659.5 107.1,701.7 53.6,602.4 "/>
<polygon class="st25" points="149,595.9 185.2,665.4 107.1,701.7 56.7,608.1 "/>
<polygon class="st12" points="154.7,589.5 149,596.7 56.7,608.8 53.6,603.1 "/>
<polygon class="st12" points="190.7,660.2 154.7,589.5 149,596.7 184.2,664.3 "/>
<polygon class="st27" points="154.7,588.8 149,595.9 56.7,608.1 53.6,602.4 "/>
<polygon class="st27" points="190.7,659.5 154.7,588.8 149,595.9 184.2,663.6 "/>
<polygon class="st12" points="154.7,588.8 146,599.9 53.7,612.1 53.6,602.4 "/>
<polygon class="st12" points="190.7,659.5 154.7,588.8 146,599.9 181.2,667.6 "/>
<polygon class="st12" points="190.7,660.5 190.7,675.1 107.1,719.6 107.1,702.8 "/>
<polygon class="st12" points="263.4,696.9 190.7,660.5 190.1,675.2 261.8,712.8 "/>
<polygon class="st27" points="190.7,659.5 190.7,672 107.1,716.6 107.1,701.7 "/>
<polygon class="st27" points="263.4,695.8 190.7,659.5 190.1,672.1 261.8,709.7 "/>
<polygon class="st12" points="190.7,659.5 190.7,672 107.1,716.6 107.1,701.7 "/>
<polygon class="st12" points="263.4,695.8 190.7,659.5 190.1,672.1 261.8,709.7 "/>
<polygon class="st18" points="263.4,695.8 263.2,713.9 191.6,773.5 190.7,755 "/>
<path class="st19" d="M227,698.7c0,0,1.8,2.4-0.1,3.9c-0.9,0.7-7.8,3.3-14.8,5.7c-3.4,1.2-6.9,2.4-9.6,3.3l-5.7,1.9l-1.8,0.3
	l-11,1.9l-10.3,1.8l-4.5-0.2l-0.2-17.6l10.8-16.4l3.1,1.9l0.5,0.3l7.7,2.4l21.8,6.7l9.8,3l1.1,0.3L227,698.7z"/>
<path class="st20" d="M161.6,717.4c0,0-0.5-19.2,5.6-26.8c0,0,4.9-6.8,8.2-9c0,0,2.7-2.6,6.7,3.4c0,0-10.4,8.9-11.2,20.2l-0.8,11.4
	L161.6,717.4z"/>
<ellipse transform="matrix(0.7491 -0.6625 0.6625 0.7491 -421.8825 295.2694)" class="st21" cx="178.8" cy="704.6" rx="5.9" ry="5"/>
<ellipse transform="matrix(0.7491 -0.6625 0.6625 0.7491 -412.9464 305.0565)" class="st21" cx="196.2" cy="697.6" rx="5.9" ry="5"/>
<path class="st21" d="M191.2,688c0.2,2-0.7,3.9-2.2,5.2c-2.4,2.2-5.9,2.2-7.7,0.2s-1.3-5.5,1.1-7.7c0.2-0.1,0.3-0.3,0.5-0.4l0.5,0.3
	L191.2,688z"/>
<path class="st21" d="M193.9,710.3c0.9,1,1.2,2.3,1.1,3.6l-11,1.9c-0.2-2,0.6-4,2.2-5.4C188.6,708.3,192,708.2,193.9,710.3z"/>
<path class="st21" d="M211.2,703.8c1.1,1.3,1.4,3,0.9,4.6c-3.4,1.2-6.9,2.4-9.6,3.3l-0.1-0.1c-1.8-2.1-1.3-5.5,1.1-7.7
	S209.4,701.7,211.2,703.8z"/>
<path class="st21" d="M222.8,697.7c-0.3,0.5-0.8,1-1.2,1.5c-2.4,2.2-5.9,2.2-7.7,0.2c-1.1-1.3-1.4-3-0.9-4.6L222.8,697.7z"/>
<path class="st22" d="M176.7,712l1.2,1.4c0.9-1.2,2-2.2,3.3-3l0.3-0.1c1.8-0.6-1.2-1.4-1.2-1.4S176.9,710.9,176.7,712z"/>
<path class="st22" d="M183.5,699.3l1.2,1.4c0.9-1.2,2-2.2,3.3-3l0.3-0.1c1.8-0.6-1.2-1.4-1.2-1.4S183.7,698.2,183.5,699.3z"/>
<path class="st22" d="M189.5,702.7l1.2,1.4c0.9-1.2,2-2.2,3.3-3l0.3-0.1c1.8-0.6-1.2-1.4-1.2-1.4S189.7,701.5,189.5,702.7z"/>
<path class="st22" d="M201.6,704.8l1.2,1.4c0.9-1.2,2-2.2,3.3-3l0.3-0.1c1.8-0.6-1.2-1.4-1.2-1.4S201.8,703.7,201.6,704.8z"/>
<path class="st22" d="M218,701.6l1.2,1.4c0.9-1.2,2-2.2,3.3-3l0.3-0.1c1.8-0.6-1.2-1.4-1.2-1.4S218.3,700.5,218,701.6z"/>
<path class="st22" d="M203.5,697.8l1.2,1.4c0.9-1.2,2-2.2,3.3-3l0.3-0.1c1.8-0.6-1.2-1.4-1.2-1.4S203.7,696.8,203.5,697.8z"/>
<path class="st20" d="M165.5,721.8c0,0-6.5,0.3-3.9-4.4c3.3-1.4,6.9-1.9,10.5-1.5c0,0,27.2-3,30.4-5.5c0,0,23.9-7.8,24.7-9.2
	c0,0,2,0.1-3.5,3.7s-24.4,9.4-24.4,9.4l-20.1,4.8l-7.5,0.2L165.5,721.8z"/>
<path class="st23" d="M165.5,721.8c0,0-6.5,0.3-3.9-4.4c3.3-1.4,6.9-1.9,10.5-1.5c0,0,27.2-3,30.4-5.5c0,0,23.9-7.8,24.7-9.2
	c0,0,2,0.1-3.5,3.7s-24.4,9.4-24.4,9.4l-20.1,4.8l-7.5,0.2L165.5,721.8z"/>
<path class="st19" d="M220.4,705.5c0,0,2.5,1.5,1.4,3.7c-0.6,1-6,6-11.5,10.9c-2.7,2.4-5.5,4.8-7.6,6.7c-2.7,2.3-4.5,3.9-4.5,3.9
	l-1.6,1l-9.4,5.9l-8.9,5.6l-4.3,1.5l-6.8-16.2l3.9-19.3l3.6,0.6l0.6,0.1l8.1-0.7l22.8-2l10.2-0.9l1.2-0.1L220.4,705.5z"/>
<path class="st20" d="M166.9,747.5c0,0-7.7-17.6-5-27c0,0,2-8.2,4.2-11.5c0,0,1.5-3.5,7.5,0.6c0,0-6.3,12.1-2.8,23l3.6,10.8
	L166.9,747.5z"/>
<ellipse transform="matrix(0.4446 -0.8957 0.8957 0.4446 -554.2544 564.4421)" class="st21" cx="178" cy="729.2" rx="5.9" ry="5"/>
<ellipse transform="matrix(0.4446 -0.8957 0.8957 0.4446 -535.1586 569.351)" class="st21" cx="191.6" cy="716.2" rx="5.9" ry="5"/>
<path class="st21" d="M183.2,709.1c0.9,1.8,0.9,3.9-0.1,5.6c-1.5,2.9-4.6,4.3-7.1,3.1s-3.3-4.6-1.9-7.5c0.1-0.2,0.2-0.4,0.3-0.6
	l0.6,0.1L183.2,709.1z"/>
<path class="st21" d="M194.2,728.8c1.2,0.6,2,1.7,2.3,2.9l-9.4,5.9c-1-1.8-1-4,0-5.8C188.6,728.9,191.7,727.5,194.2,728.8z"/>
<path class="st21" d="M207.7,716.1c1.5,0.8,2.4,2.3,2.5,3.9c-2.7,2.4-5.5,4.8-7.6,6.7l-0.1-0.1c-2.5-1.2-3.3-4.6-1.9-7.5
	S205.2,714.9,207.7,716.1z"/>
<path class="st21" d="M216.2,706.2c-0.1,0.6-0.3,1.2-0.6,1.8c-1.5,2.9-4.6,4.3-7.1,3.1c-1.5-0.8-2.5-2.3-2.5-4L216.2,706.2z"/>
<path class="st22" d="M178.9,736.8l1.7,0.8c0.3-1.5,1-2.8,1.9-4l0.2-0.2c1.4-1.2-1.7-0.8-1.7-0.8S178.7,735.7,178.9,736.8z"/>
<path class="st22" d="M180.4,722.5l1.7,0.8c0.3-1.5,1-2.8,1.9-4l0.2-0.2c1.4-1.2-1.7-0.8-1.7-0.8S180.2,721.4,180.4,722.5z"/>
<path class="st22" d="M187.2,723.3l1.7,0.8c0.3-1.5,1-2.8,1.9-4l0.2-0.2c1.4-1.2-1.7-0.8-1.7-0.8S187,722.2,187.2,723.3z"/>
<path class="st22" d="M199.2,720.8l1.7,0.8c0.3-1.5,1-2.8,1.9-4l0.2-0.2c1.4-1.2-1.7-0.8-1.7-0.8S199,719.6,199.2,720.8z"/>
<path class="st22" d="M213.3,711.6l1.7,0.8c0.3-1.5,1-2.8,1.9-4l0.2-0.2c1.4-1.2-1.7-0.8-1.7-0.8S213.1,710.5,213.3,711.6z"/>
<path class="st22" d="M198.4,713.6l1.7,0.8c0.3-1.5,1-2.8,1.9-4l0.2-0.2c1.4-1.2-1.7-0.8-1.7-0.8S198.2,712.5,198.4,713.6z"/>
<path class="st20" d="M172.2,750.1c0,0-5.9,2.7-5.2-2.6c2.5-2.5,5.7-4.3,9.2-5.3c0,0,24.1-13.1,26.1-16.6c0,0,19.2-16.2,19.4-17.8
	c0,0,1.9-0.7-1.9,4.8s-19,17.9-19,17.9l-16.8,12l-6.8,3L172.2,750.1z"/>
<path class="st23" d="M172.2,750.1c0,0-5.9,2.7-5.2-2.6c2.5-2.5,5.7-4.3,9.2-5.3c0,0,24.1-13.1,26.1-16.6c0,0,19.2-16.2,19.4-17.8
	c0,0,1.9-0.7-1.9,4.8s-19,17.9-19,17.9l-16.8,12l-6.8,3L172.2,750.1z"/>
<polygon class="st18" points="190.7,755 107.1,701.7 107.1,716.4 191.6,773.5 "/>
<polygon class="st18" points="98.2,706.9 107.1,701.7 53.6,602.4 47.4,608.5 "/>
</svg>
