<?xml version="1.0" encoding="utf-8"?>
<!-- Generator: Adobe Illustrator 25.0.0, SVG Export Plug-In . SVG Version: 6.00 Build 0)  -->
<svg version="1.1" id="Layer_1" xmlns="http://www.w3.org/2000/svg" xmlns:xlink="http://www.w3.org/1999/xlink" x="0px" y="0px"
	 viewBox="0 0 896 748" style="enable-background:new 0 0 896 748;" xml:space="preserve">
<style type="text/css">
	.st0{fill:#9381FF;}
	.st1{fill:#F2F2F2;}
	.st2{fill:#2F2E41;}
	.st3{fill:#A0616A;}
	.st4{opacity:0.1;enable-background:new    ;}
	.st5{fill:#3F3D56;}
</style>
<path class="st0" d="M41.6,712.7c12.4,23,38.8,32.9,38.8,32.9s6.2-27.5-6.2-50.5s-38.8-32.9-38.8-32.9S29.2,689.7,41.6,712.7z"/>
<path class="st0" d="M50.2,705.2c22.4,13.5,31.1,40.3,31.1,40.3s-27.7,4.9-50.2-8.6S0,696.6,0,696.6S27.7,691.7,50.2,705.2z"/>
<rect x="413.2" y="35.9" class="st1" width="140" height="2"/>
<rect x="513.2" y="37.4" class="st1" width="2" height="18.5"/>
<rect x="452.2" y="37.4" class="st1" width="2" height="18.5"/>
<rect x="484.2" y="131.9" class="st1" width="140" height="2"/>
<rect x="522.2" y="113.9" class="st1" width="2" height="18.5"/>
<rect x="583.2" y="113.9" class="st1" width="2" height="18.5"/>
<rect x="670.2" y="176.9" class="st1" width="140" height="2"/>
<rect x="708.2" y="158.9" class="st1" width="2" height="18.5"/>
<rect x="769.2" y="158.9" class="st1" width="2" height="18.5"/>
<rect x="656.2" y="640.9" class="st1" width="140" height="2"/>
<rect x="694.2" y="622.9" class="st1" width="2" height="18.5"/>
<rect x="755.2" y="622.9" class="st1" width="2" height="18.5"/>
<rect x="417.2" y="319.9" class="st1" width="140" height="2"/>
<rect x="455.2" y="301.9" class="st1" width="2" height="18.5"/>
<rect x="516.2" y="301.9" class="st1" width="2" height="18.5"/>
<rect x="461.2" y="560.9" class="st1" width="140" height="2"/>
<rect x="499.2" y="542.9" class="st1" width="2" height="18.5"/>
<rect x="560.2" y="542.9" class="st1" width="2" height="18.5"/>
<rect x="685.2" y="487.9" class="st1" width="140" height="2"/>
<rect x="723.2" y="469.9" class="st1" width="2" height="18.5"/>
<rect x="784.2" y="469.9" class="st1" width="2" height="18.5"/>
<polygon class="st2" points="362.1,702.2 125.3,702.2 125.3,700.5 360.4,700.5 360.4,617.9 145.2,617.9 134.7,596.1 136.3,595.3 
	146.3,616.2 362.1,616.2 "/>
<circle class="st0" cx="156.8" cy="726" r="17.9"/>
<circle class="st0" cx="333.1" cy="726" r="17.9"/>
<circle class="st0" cx="540.9" cy="346.2" r="11.1"/>
<path class="st2" d="M387.4,589.8H121.2L63.6,401.5h383l-0.3,1.1L387.4,589.8z M122.5,588h263.6l58.2-184.8H66L122.5,588z"/>
<polygon class="st1" points="366.6,580 132.8,580 82.3,413 418.7,413 418.4,414 "/>
<polygon class="st2" points="451.5,384.7 449.8,384.3 461.1,341.9 526.4,341.9 526.4,343.6 462.4,343.6 "/>
<rect x="82.3" y="458.6" class="st2" width="345.3" height="1.7"/>
<rect x="101.5" y="521.3" class="st2" width="306.3" height="1.7"/>
<rect x="254.3" y="402.4" class="st2" width="1.7" height="186.5"/>
<rect x="233.6" y="494.8" transform="matrix(6.541722e-02 -0.9979 0.9979 6.541722e-02 -188.9443 789.5331)" class="st2" width="186.9" height="1.7"/>
<rect x="182.5" y="402.2" transform="matrix(0.9979 -6.503739e-02 6.503739e-02 0.9979 -31.8467 12.9713)" class="st2" width="1.7" height="186.9"/>
<rect y="745" class="st2" width="896" height="2"/>
<path class="st3" d="M595.4,61.9c0,0,14.6,41.6,5.6,48s30.4,58.7,30.4,58.7l47.2-12.8L652.8,112c0,0-3.4-43.7-3.4-50.1
	S595.4,61.9,595.4,61.9z"/>
<path class="st4" d="M595.4,61.9c0,0,14.6,41.6,5.6,48s30.4,58.7,30.4,58.7l47.2-12.8L652.8,112c0,0-3.4-43.7-3.4-50.1
	S595.4,61.9,595.4,61.9z"/>
<path class="st2" d="M570.9,358.5c0,0-4.3,53.3,0,81.1s10.7,104.5,10.7,104.5s0,145.1,23.5,147.2s40.5,4.3,42.7-4.3
	s-10.7-12.8-4.3-17.1s8.5-19.2,0-36.3s0-189.9,0-189.9L684,552.6c0,0,4.3,89.6,8.5,102.4s-4.3,36.3,10.7,38.4s32-10.7,40.5-14.9
	s-12.8-4.3-8.5-6.4s17.1-8.5,12.8-10.7s-8.5-104.5-8.5-104.5s-11.7-218.7-26.7-227.2s-24.5,6.2-24.5,6.2L570.9,358.5z"/>
<path class="st2" d="M609.3,682.8v17.1c0,0-19.2,46.4,0,46.4s34.1,4.8,34.1-1.6V687L609.3,682.8z"/>
<path class="st2" d="M735.2,682.7v17.1c0,0,19.2,46.4,0,46.4S701,751,701,744.6V687L735.2,682.7z"/>
<circle class="st3" cx="625.3" cy="54.4" r="38.4"/>
<path class="st0" d="M613.5,125.9c0,0,10.7,32,27.7,25.6l17.1-6.4l29.9,204.8c0,0-23.5,34.1-57.6,12.8S613.5,125.9,613.5,125.9z"/>
<path class="st5" d="M643.4,119.5l9.6-20.3c0,0,56.5,26.7,65.1,35.2c8.5,8.5,8.5,21.3,8.5,21.3l-14.9,53.3c0,0,4.3,117.4,4.3,121.6
	s14.9,27.7,4.3,19.2s-12.8-17.1-21.3-4.3s-27.7,27.7-27.7,27.7L643.4,119.5z"/>
<path class="st3" d="M718.1,273.1l-6.4,59.7c0,0-38.4,34.1-29.9,36.3s12.8-6.4,12.8-6.4s14.9,14.9,23.5,6.4s29.9-89.6,29.9-89.6
	L718.1,273.1z"/>
<path class="st2" d="M626.1,0.1c-8.5-0.3-17.6-0.5-24.8,4.1c-3.3,2.3-6.2,5.1-8.6,8.4c-7,8.8-13,20-10.4,30.9l3-1.2
	c0,2.9-0.7,5.8-1.9,8.5c0.4-1.2,1.8,0.8,1.5,2l-3.3,10.9c5.5-2,12.3,2.1,13.1,7.8c0.4-12.7,1.7-27.2,12-34.6
	c5.2-3.7,11.7-4.9,18-5.9c5.8-0.9,11.9-1.8,17.5,0.1s10.3,7.6,9.1,13.4c2.6-0.9,5.4,0.9,6.7,3.3s1.3,5.2,1.4,8
	c2.7,1.9,5.9-1.9,7-5.1c2.6-7.4,4.9-15.3,3.5-23.1s-7.7-15.1-15.6-15.2c1-1,1.5-2.4,1.4-3.8l-6.5-0.5c1.6-0.2,3.2-1,4.3-2.3
	C650.8,8.7,630.3,0.3,626.1,0.1z"/>
<path class="st5" d="M624.2,113.1c0,0-17.4-17-23.6-16s-14.8,16-14.8,16s-51.2,17.1-49.1,34.1c2.1,17.1,25.6,100.3,25.6,100.3
	s19.2,100.3,2.1,111s81.1,38.4,83.2,25.6s6.4-140.8,0-160S624.2,113.1,624.2,113.1z"/>
<path class="st5" d="M698.9,147.2h26.4c0,0,18.4,81.1,20.6,89.6s6.4,49.1,4.3,49.1s-44.8-8.5-44.8-2.1L698.9,147.2z"/>
<path class="st1" d="M698,348H597c-9.9-45.3-10.7-89.1,0-131h101C681.7,258.1,680.7,301.6,698,348z"/>
<path class="st3" d="M555.9,292.3l29.9,12.8c0,0,57.6,8.5,57.6-14.9s-57.6-10.7-57.6-10.7l-19.2-6.1L555.9,292.3z"/>
<path class="st5" d="M562.3,134.4l-25.6,6.4l-19.2,113.1c0,0-6.4,29.9,4.3,32s40.5,19.2,40.5,19.2s4.3-32,12.8-32L553.8,256
	l12.8-74.7L562.3,134.4z"/>
<rect x="60.2" y="352.9" class="st1" width="140" height="2"/>
<rect x="98.2" y="334.9" class="st1" width="2" height="18.5"/>
<rect x="159.2" y="334.9" class="st1" width="2" height="18.5"/>
<rect x="109.2" y="56.9" class="st1" width="140" height="2"/>
<rect x="209.2" y="58.4" class="st1" width="2" height="18.5"/>
<rect x="148.2" y="58.4" class="st1" width="2" height="18.5"/>
<rect x="250.2" y="253.9" class="st1" width="140" height="2"/>
<rect x="350.2" y="255.4" class="st1" width="2" height="18.5"/>
<rect x="289.2" y="255.4" class="st1" width="2" height="18.5"/>
<rect x="12.2" y="252.9" class="st1" width="140" height="2"/>
<rect x="112.2" y="254.4" class="st1" width="2" height="18.5"/>
<rect x="51.2" y="254.4" class="st1" width="2" height="18.5"/>
<rect x="180.2" y="152.9" class="st1" width="140" height="2"/>
<rect x="218.2" y="134.9" class="st1" width="2" height="18.5"/>
<rect x="279.2" y="134.9" class="st1" width="2" height="18.5"/>
</svg>
