<?xml version="1.0" encoding="utf-8"?>
<!-- Generator: Adobe Illustrator 25.0.0, SVG Export Plug-In . SVG Version: 6.00 Build 0)  -->
<svg version="1.1" id="Layer_1" xmlns="http://www.w3.org/2000/svg" xmlns:xlink="http://www.w3.org/1999/xlink" x="0px" y="0px"
	 viewBox="0 0 512 309" style="enable-background:new 0 0 512 309;" xml:space="preserve">
<style type="text/css">
	.st0{fill:#FFFFFF;}
</style>
<g>
	<path class="st0" d="M120.8,80.6h96.6v7.7h-87.7V146h82.5v7.7h-82.5v63.4h88.7v7.7h-97.6V80.6z M226,80.6h10.3l45.5,63.4l46.5-63.4
		L391.4,0L287.6,150.6l53.5,74.1h-10.7l-48.7-67.5l-48.9,67.5h-10.5l53.9-74.1L226,80.6z M344.9,88.2v-7.7h110v7.7h-50.7v136.5h-8.9
		V88.2H344.9z M0,80.6h11.1l152.6,228.3l-63.1-84.1L9.3,91.5L8.9,224.8H0V80.6z M454.1,214.8c-1.8,0-3.2-1.4-3.2-3.2
		s1.4-3.2,3.2-3.2c1.8,0,3.2,1.4,3.2,3.2S455.9,214.8,454.1,214.8z M462.8,206.3h4.7c0.1,2.6,1.9,4.3,4.7,4.3c3.1,0,4.8-1.9,4.8-5.3
		v-22h4.8v22c0,6.3-3.6,9.9-9.6,9.9C466.6,215.2,462.8,211.7,462.8,206.3z M488.2,206.1h4.8c0.4,3,3.3,4.8,7.4,4.8
		c3.9,0,6.7-2,6.7-4.8c0-2.4-1.8-3.8-5.9-4.8l-4-1c-5.6-1.3-8.2-4-8.2-8.6c0-5.5,4.5-9.2,11.3-9.2c6.3,0,10.9,3.7,11.2,8.9h-4.7
		c-0.5-2.9-2.9-4.7-6.6-4.7c-3.8,0-6.4,1.8-6.4,4.6c0,2.2,1.6,3.5,5.7,4.4l3.4,0.8c6.4,1.5,9,4.1,9,8.8c0,6-4.6,9.7-12,9.7
		C493.1,215.2,488.5,211.6,488.2,206.1z"/>
</g>
</svg>
