<?xml version="1.0" encoding="utf-8"?>
<!-- Generator: Adobe Illustrator 25.0.0, SVG Export Plug-In . SVG Version: 6.00 Build 0)  -->
<svg version="1.1" id="Layer_1" xmlns="http://www.w3.org/2000/svg" xmlns:xlink="http://www.w3.org/1999/xlink" x="0px" y="0px"
	 viewBox="0 0 512 214" style="enable-background:new 0 0 512 214;" xml:space="preserve">
<style type="text/css">
	.st0{fill:#6772E5;}
</style>
<g>
	<path class="st0" d="M36,83.5c0-5.5,4.6-7.7,12.1-7.7c10.8,0,24.5,3.3,35.3,9.1V51.5c-11.8-4.7-23.5-6.5-35.3-6.5
		C19.2,44.9,0,60,0,85.2c0,39.3,54,33,54,49.9c0,6.5-5.7,8.7-13.7,8.7c-11.8,0-26.9-4.8-38.8-11.4v33.8c13.2,5.7,26.6,8.1,38.8,8.1
		c29.6,0,49.9-14.6,49.9-40.1C90.2,91.9,36,99.4,36,83.5z M132.1,16.5l-34.7,7.4l-0.1,113.9c0,21,15.8,36.6,36.8,36.6
		c11.7,0,20.2-2.1,24.9-4.7v-28.9c-4.6,1.8-27,8.4-27-12.7V77.7h27V47.4h-27L132.1,16.5z M203.2,57.9L201,47.4h-30.7v124.4h35.6
		V87.5c8.4-11,22.6-9,27-7.4V47.4C228.3,45.7,211.6,42.5,203.2,57.9z M241.5,47.4h35.7v124.4h-35.7V47.4z M241.5,36.6l35.7-7.7V0
		l-35.7,7.5V36.6z M351.4,44.9c-13.9,0-22.9,6.5-27.9,11.1l-1.8-8.8h-31.3V213l35.6-7.5l0.1-40.2c5.1,3.7,12.7,9,25.2,9
		c25.5,0,48.6-20.5,48.6-65.6C399.8,67.4,376.3,44.9,351.4,44.9z M342.9,142.9c-8.4,0-13.4-3-16.8-6.7L326,83.5
		c3.7-4.1,8.8-7,16.9-7c12.9,0,21.9,14.5,21.9,33.1C364.8,128.7,356,142.9,342.9,142.9z M512,110.1c0-36.4-17.6-65.1-51.3-65.1
		c-33.8,0-54.3,28.7-54.3,64.9c0,42.8,24.2,64.4,58.9,64.4c16.9,0,29.7-3.8,39.4-9.2v-28.4c-9.7,4.8-20.8,7.8-34.8,7.8
		c-13.8,0-26-4.8-27.6-21.6h69.5C511.7,120.9,512,113.5,512,110.1z M441.7,96.6c0-16.1,9.8-22.8,18.8-22.8c8.7,0,17.9,6.7,17.9,22.8
		H441.7L441.7,96.6z"/>
</g>
</svg>
