<?xml version="1.0" encoding="utf-8"?>
<!-- Generator: Adobe Illustrator 25.0.0, SVG Export Plug-In . SVG Version: 6.00 Build 0)  -->
<svg version="1.1" id="Layer_1" xmlns="http://www.w3.org/2000/svg" xmlns:xlink="http://www.w3.org/1999/xlink" x="0px" y="0px"
	 viewBox="0 0 256 154" style="enable-background:new 0 0 256 154;" xml:space="preserve">
<style type="text/css">
	.st0{fill:url(#SVGID_1_);}
</style>
<g>
	
		<linearGradient id="SVGID_1_" gradientUnits="userSpaceOnUse" x1="-827.7809" y1="614.6745" x2="-826.7531" y2="614.3189" gradientTransform="matrix(256 0 0 -153.6 211905 94462.8047)">
		<stop  offset="0" style="stop-color:#2298BD"/>
		<stop  offset="1" style="stop-color:#0ED7B5"/>
	</linearGradient>
	<path class="st0" d="M128,0C93.9,0,72.5,17.1,64,51.2C76.8,34.1,91.7,27.7,108.8,32c9.7,2.4,16.7,9.5,24.4,17.3
		c12.5,12.7,27.1,27.5,58.8,27.5c34.1,0,55.5-17.1,64-51.2c-12.8,17.1-27.7,23.5-44.8,19.2c-9.7-2.4-16.7-9.5-24.4-17.3
		C174.2,14.7,159.7,0,128,0z M64,76.8C29.9,76.8,8.5,93.9,0,128c12.8-17.1,27.7-23.5,44.8-19.2c9.7,2.4,16.7,9.5,24.4,17.3
		c12.5,12.7,27.1,27.5,58.8,27.5c34.1,0,55.5-17.1,64-51.2c-12.8,17.1-27.7,23.5-44.8,19.2c-9.7-2.4-16.7-9.5-24.4-17.3
		C110.2,91.5,95.7,76.8,64,76.8z"/>
</g>
</svg>
