<?xml version="1.0" encoding="utf-8"?>
<!-- Generator: Adobe Illustrator 25.0.0, SVG Export Plug-In . SVG Version: 6.00 Build 0)  -->
<svg version="1.1" id="Layer_1" xmlns="http://www.w3.org/2000/svg" xmlns:xlink="http://www.w3.org/1999/xlink" x="0px" y="0px"
	 viewBox="0 0 512 512" style="enable-background:new 0 0 512 512;" xml:space="preserve">
<style type="text/css">
	.st0{fill:#FFFFFF;}
</style>
<g>
	<path class="st0" d="M255.4,227c-20,0-34.4,13-34.4,32.6c0,19.6,16.2,32.6,36.2,32.6c12.1,0,22.7-4.8,29.3-12.8l-13.9-8
		c-3.7,4-9.2,6.3-15.5,6.3c-8.7,0-16-4.5-18.8-11.8h50.7c0.4-2,0.6-4.1,0.6-6.3C289.8,240,275.4,227,255.4,227z M238.3,253.2
		c2.3-7.2,8.5-11.8,17.1-11.8c8.7,0,14.9,4.5,17.1,11.8H238.3L238.3,253.2z M450.4,227c-20,0-34.4,13-34.4,32.6
		c0,19.6,16.2,32.6,36.2,32.6c12.1,0,22.7-4.8,29.3-12.8l-13.9-8c-3.7,4-9.2,6.3-15.5,6.3c-8.7,0-16-4.5-18.8-11.8h50.7
		c0.4-2,0.6-4.1,0.6-6.3C484.8,240,470.4,227,450.4,227L450.4,227z M433.3,253.2c2.3-7.2,8.5-11.8,17.1-11.8
		c8.7,0,14.9,4.5,17.1,11.8H433.3z M362.6,259.6c0,10.9,7.1,18.1,18.1,18.1c7.5,0,13.1-3.4,15.9-8.9l13.9,8
		c-5.8,9.6-16.6,15.4-29.8,15.4c-20,0-34.4-13-34.4-32.6c0-19.6,14.4-32.6,34.4-32.6c13.3,0,24.1,5.8,29.8,15.4l-13.9,8
		c-2.9-5.5-8.5-8.9-15.9-8.9C369.7,241.5,362.6,248.7,362.6,259.6z M512,207.1v83.3h-16.3v-83.3H512z M66.9,198l66.9,115.9H0
		L66.9,198z M234.2,207.1L184,294l-50.2-86.9h18.8l31.4,54.3l31.4-54.3H234.2z M340.9,228.8v17.5c-1.8-0.5-3.7-0.9-5.8-0.9
		c-10.5,0-18.1,7.2-18.1,18.1v26.8h-16.3v-61.6H317v16.7C317,236.2,327.7,228.8,340.9,228.8z"/>
</g>
</svg>
